/vscmnt/brussel_pixiu_data/_data_brussel/112/vsc11236/PredSimResults/SUBJ04mtu3D/worker1.mot
version=1
nRows=11
nColumns=50
inDegrees=yes
endheader
                time	         pelvis_tilt	         pelvis_list	     pelvis_rotation	           pelvis_tx	           pelvis_ty	           pelvis_tz	       hip_flexion_r	     hip_adduction_r	      hip_rotation_r	        knee_angle_r	       ankle_angle_r	         mtp_angle_r	       hip_flexion_l	     hip_adduction_l	      hip_rotation_l	        knee_angle_l	       ankle_angle_l	         mtp_angle_l	    lumbar_extension	      lumbar_bending	     lumbar_rotation	 ercspn_r/activation	 intobl_r/activation	 extobl_r/activation	    abd_r/activation	    add_r/activation	hamstrings_r/activation	bifemsh_r/activation	glut_max_r/activation	iliopsoas_r/activation	rect_fem_r/activation	  vasti_r/activation	gastroc_r/activation	 soleus_r/activation	tib_ant_r/activation	 ercspn_l/activation	 intobl_l/activation	 extobl_l/activation	    abd_l/activation	    add_l/activation	hamstrings_l/activation	bifemsh_l/activation	glut_max_l/activation	iliopsoas_l/activation	rect_fem_l/activation	  vasti_l/activation	gastroc_l/activation	 soleus_l/activation	tib_ant_l/activation	
          0.00000000	        -11.67269664	         -0.79759955	         14.27487902	          0.00000000	          0.84307525	         -0.02018345	         40.15990674	        -10.65888153	         -2.97827906	         -9.63583063	         -9.31887282	          0.24183566	        -11.76575490	         -4.70730426	          9.84100147	        -10.04474701	         -1.63930550	         48.96733655	         -6.93344654	          0.74551670	        -12.67444444	          0.10514949	          0.15884232	          0.01938825	          0.01000003	          0.12597461	          0.08437194	          0.01001040	          0.20448796	          0.23122898	          0.07088608	          0.37038224	          0.01293133	          0.01293872	          0.01000196	          0.01203867	          0.01000007	          0.01000008	          0.03132992	          0.01009405	          0.01000052	          0.01010046	          0.03616912	          0.92053139	          0.17262667	          0.56051845	          0.01000617	          0.38542452	          0.02165516	
          0.01759239	        -12.82292579	         -2.07514112	         14.57222020	          0.02255347	          0.83808134	         -0.01595383	         39.97196785	         -9.61064474	         -4.88940091	         -9.55379830	        -10.32885059	          0.22130417	        -11.28835053	         -6.35544771	          9.43050375	        -10.47311222	         -2.86998157	         49.75489557	         -5.45379172	          2.35453233	        -12.75520141	          0.08330255	          0.12282829	          0.01499245	          0.01000003	          0.11544923	          0.14577326	          0.01000791	          0.36627379	          0.17880286	          0.05482046	          0.32815181	          0.01000053	          0.01000557	          0.01673158	          0.11886063	          0.01000004	          0.01000007	          0.02422654	          0.01000007	          0.01000010	          0.01000197	          0.02796856	          0.94723481	          0.13348907	          0.56107960	          0.01000495	          0.38546173	          0.01674539	
          0.03518479	        -13.96652896	         -3.30686934	         14.78935884	          0.04423016	          0.83491841	         -0.01153632	         40.09971416	         -8.40565983	         -5.66388219	        -10.01102009	        -10.12324431	          0.30459305	        -10.63330592	         -7.91440121	          9.10974779	        -11.00961620	         -4.29974218	         49.54262608	         -4.18134103	          3.93312955	        -12.77395521	          0.06441560	          0.09497966	          0.01159331	          0.15483248	          0.09164468	          0.19496504	          0.01000142	          0.51956334	          0.13826322	          0.04239810	          0.40027456	          0.01000394	          0.01001891	          0.01293820	          0.35999791	          0.01000012	          0.01000020	          0.01873370	          0.01000244	          0.01000023	          0.01000264	          0.02162730	          0.87253486	          0.10322441	          0.58809426	          0.01000279	          0.29806866	          0.01294885	
          0.05277718	        -15.10201960	         -4.31838666	         14.87917784	          0.06398751	          0.83543028	         -0.00729111	         40.07556485	         -7.30338393	         -6.05306376	        -10.19276288	         -8.53234405	          0.83154805	         -9.87019756	         -9.14416184	          8.76635022	        -11.39356251	         -5.91274516	         47.34228583	         -3.26534623	          5.30929186	        -12.68789943	          0.08434934	          0.07344509	          0.01000020	          0.26219454	          0.14668140	          0.21741646	          0.01001911	          0.43398680	          0.10691507	          0.03279310	          0.37019679	          0.01000890	          0.01000799	          0.01000500	          0.41035049	          0.01000011	          0.01000018	          0.01448624	          0.01000006	          0.01000008	          0.01000586	          0.01672378	          0.81901528	          0.07982166	          0.56431340	          0.01000158	          0.23048910	          0.01001336	
          0.07036958	        -16.19677106	         -4.87000082	         14.87739614	          0.08204174	          0.83913979	         -0.00330625	         39.74050674	         -6.50344262	         -5.89420078	         -9.66779075	         -7.59178771	          1.34802222	         -9.09552709	         -9.81788702	          8.51402072	        -11.76495091	         -7.06550127	         42.61926703	         -2.74238032	          6.20128973	        -12.50991986	          0.14143191	          0.05679302	          0.01000027	          0.29767112	          0.21214209	          0.23304245	          0.01000305	          0.34876891	          0.08267443	          0.02536721	          0.29069572	          0.01000496	          0.01000619	          0.01000175	          0.42263322	          0.01000020	          0.01000019	          0.01120181	          0.01000009	          0.01000007	          0.01000226	          0.01293203	          0.76562742	          0.06172522	          0.53583429	          0.01000428	          0.19236201	          0.01000104	
          0.08796197	        -17.19086972	         -5.05195762	         14.83226410	          0.09923721	          0.84436888	          0.00050959	         39.34521402	         -5.97298564	         -5.27336278	         -9.15242666	         -7.09904191	          1.78051957	         -8.41126834	        -10.09997367	          8.50993010	        -12.10339248	         -7.73394178	         36.54015094	         -2.49474619	          6.67939307	        -12.23493234	          0.15988465	          0.04391644	          0.01000019	          0.32213520	          0.24308734	          0.24130019	          0.01000222	          0.28186167	          0.06392983	          0.01962575	          0.26310071	          0.01000903	          0.01004145	          0.01000334	          0.45756163	          0.01000035	          0.01000023	          0.01000000	          0.01000028	          0.01000006	          0.01293239	          0.01000000	          0.68377088	          0.04773217	          0.51946753	          0.02548692	          0.19423188	          0.01000116	
          0.10555437	        -18.04236199	         -5.00514009	         14.74800537	          0.11626562	          0.85000594	          0.00428161	         38.88705045	         -5.59301022	         -4.40166858	         -8.77891176	         -6.87800340	          2.25275726	         -7.92269429	        -10.18362374	          8.76993707	        -12.26482656	         -8.14527429	         30.15958667	         -2.40712690	          6.86865881	        -11.84302050	          0.16870792	          0.03395935	          0.01000024	          0.31547839	          0.23728351	          0.22489288	          0.01000178	          0.26870679	          0.04943515	          0.01519456	          0.27159665	          0.01000654	          0.01001999	          0.01001133	          0.46525067	          0.01000089	          0.01000036	          0.01000008	          0.01000002	          0.01000006	          0.01000095	          0.01000001	          0.61582267	          0.03691511	          0.52657153	          0.01970946	          0.15019650	          0.01000350	
          0.12314676	        -18.72164916	         -4.86652596	         14.61722575	          0.13348401	          0.85554414	          0.00815474	         38.24060654	         -5.22722197	         -3.42575081	         -8.39083974	         -6.75260802	          2.82249140	         -7.67365253	        -10.28676822	          8.82652679	        -12.16767662	         -8.16043227	         24.19578955	         -2.41533120	          6.89027329	        -11.30841360	          0.15615777	          0.02625981	          0.01000012	          0.37938681	          0.18348477	          0.22573666	          0.01000192	          0.26253134	          0.03822683	          0.01580594	          0.27229360	          0.01000627	          0.01001467	          0.01002092	          0.56212127	          0.15617591	          0.01000025	          0.16679857	          0.01000001	          0.01000005	          0.01000471	          0.01000001	          0.57343503	          0.02855185	          0.42878657	          0.13588988	          0.15406417	          0.01000023	
          0.14073915	        -19.23505734	         -4.66895361	         14.55720247	          0.15075032	          0.86079507	          0.01243902	         37.45872630	         -4.89920504	         -2.37693190	         -8.10457927	         -6.54448998	          3.50633985	         -7.17616176	        -10.64684721	          7.13678442	        -12.44751989	         -7.84568635	         19.38947305	         -2.50126753	          6.68367486	        -10.72272931	          0.15922924	          0.02030598	          0.01000016	          0.37435525	          0.16789706	          0.21388083	          0.01000210	          0.21856235	          0.02955975	          0.01230755	          0.28179560	          0.01000700	          0.01001492	          0.01000782	          0.48917068	          0.13083322	          0.01000035	          0.15987239	          0.01000001	          0.01000006	          0.01000194	          0.01000002	          0.58761831	          0.02208755	          0.43270934	          0.10507995	          0.11913364	          0.14987334	
          0.15833155	        -19.60174266	         -4.40496017	         14.56706351	          0.16787854	          0.86577762	          0.01707873	         36.58060302	         -4.62782765	         -1.41094740	         -7.92317064	         -6.28505370	          4.30596787	         -6.36388681	        -11.24557382	          3.74919624	        -12.91358607	         -7.74154500	         15.50454753	         -2.68289636	          6.26133577	        -10.08095234	          0.14425537	          0.01570206	          0.01000015	          0.36732504	          0.18941153	          0.20257668	          0.01000226	          0.17458863	          0.02285775	          0.01007606	          0.29200331	          0.01000618	          0.01000921	          0.01001055	          0.44012696	          0.10117035	          0.01000045	          0.12908431	          0.01000001	          0.01000005	          0.01004073	          0.01000002	          0.59429491	          0.06321863	          0.44667621	          0.08125557	          0.09212294	          0.11589395	
          0.17592394	        -19.84327236	         -4.10409082	         14.60192700	          0.18476773	          0.87050335	          0.02195341	         35.58401608	         -4.37324465	         -0.53303267	         -7.73255719	         -6.01636127	          5.18570719	         -5.33035133	        -12.00104689	         -0.59848580	        -13.18080071	         -7.65662662	         12.36845126	         -2.96197579	          5.69996260	         -9.35861324	          0.13198801	          0.01214198	          0.01000018	          0.37136760	          0.20267872	          0.18632869	          0.01000294	          0.13500533	          0.01767529	          0.01009368	          0.29139796	          0.01000728	          0.01000891	          0.01001043	          0.40951842	          0.07823429	          0.01000055	          0.12528202	          0.01000001	          0.01000006	          0.01000530	          0.01000003	          0.59902386	          0.09103024	          0.44750845	          0.06283290	          0.07123641	          0.08962003	
